<svg width="69" height="79" viewBox="0 0 69 79" fill="none" xmlns="http://www.w3.org/2000/svg">
<path fill-rule="evenodd" clip-rule="evenodd" d="M24.4196 19.6425C24.7282 18.9727 25.0896 18.4524 25.3284 18.178C25.3331 18.8251 25.2334 19.4055 25.079 19.9099C25.5542 20.1392 26.0481 20.4602 26.5201 20.9032C26.1564 20.8922 25.5289 20.8041 24.8276 20.5756C24.5043 21.2885 24.0957 21.7807 23.8278 22.0099C23.8459 21.4099 23.9722 20.8349 24.1495 20.3163C23.6485 20.0943 23.1408 19.7965 22.6882 19.4025C23.0383 19.3615 23.677 19.3958 24.4196 19.6425Z" fill="url(#paint0_linear_643_2806)"/>
<path fill-rule="evenodd" clip-rule="evenodd" d="M21.9803 12.9321C22.1857 12.4863 22.4263 12.1399 22.5852 11.9573C22.5884 12.388 22.522 12.7744 22.4192 13.1101C22.7356 13.2627 23.0644 13.4764 23.3785 13.7713C23.1365 13.764 22.7187 13.7053 22.2519 13.5532C22.0367 14.0278 21.7647 14.3554 21.5864 14.5079C21.5984 14.1086 21.6825 13.7258 21.8005 13.3806C21.467 13.2328 21.1292 13.0346 20.8279 12.7724C21.061 12.7451 21.486 12.7679 21.9803 12.9321Z" fill="url(#paint1_linear_643_2806)"/>
<path fill-rule="evenodd" clip-rule="evenodd" d="M15.3792 6.26174C15.6878 5.59193 16.0492 5.07161 16.288 4.79727C16.2927 5.44433 16.193 6.02475 16.0386 6.5292C16.5138 6.75844 17.0077 7.07946 17.4797 7.52243C17.116 7.51143 16.4885 7.42335 15.7872 7.19489C15.4639 7.90776 15.0553 8.39997 14.7874 8.62912C14.8055 8.02918 14.9317 7.45421 15.1091 6.93555C14.6081 6.71352 14.1004 6.41578 13.6478 6.02178C13.9979 5.98075 14.6366 6.01502 15.3792 6.26174Z" fill="url(#paint2_linear_643_2806)"/>
<path fill-rule="evenodd" clip-rule="evenodd" d="M14.3339 21.2799C14.7878 20.2944 15.3196 19.5288 15.671 19.1251C15.6779 20.0772 15.5311 20.9313 15.3039 21.6736C16.0028 22.0108 16.7292 22.483 17.4232 23.1344C16.8883 23.1182 15.9655 22.9887 14.934 22.6528C14.4585 23.7015 13.8573 24.4255 13.4632 24.7627C13.4899 23.8801 13.6756 23.0343 13.9364 22.2714C13.199 21.9447 12.4518 21.5065 11.7856 20.9266C12.3008 20.8662 13.2408 20.9167 14.3339 21.2799Z" fill="url(#paint3_linear_643_2806)"/>
<circle cx="17.0646" cy="14.535" r="0.397721" transform="rotate(21.3865 17.0646 14.535)" fill="#2F235A"/>
<circle cx="26.9119" cy="9.53417" r="0.397721" transform="rotate(21.3865 26.9119 9.53417)" fill="#FE9076"/>
<circle cx="8.00832" cy="11.7068" r="0.397721" transform="rotate(21.3865 8.00832 11.7068)" fill="#FFA400"/>
<circle cx="16.5493" cy="27.7209" r="0.397721" transform="rotate(21.3865 16.5493 27.7209)" fill="#23BB86"/>
<path d="M26.6102 7.63321C26.2233 6.15538 24.8266 2.77553 22.3356 1.07874" stroke="#FE9076" stroke-width="0.346178" stroke-linecap="round"/>
<path d="M6.83473 10.1023C5.87192 8.91623 3.20395 6.41506 0.23451 5.8987" stroke="#FFA400" stroke-width="0.346178" stroke-linecap="round"/>
<path d="M14.8568 28.2989C14.0035 28.6101 11.8556 29.6017 10.0898 31.0785" stroke="#23BB86" stroke-width="0.346178" stroke-linecap="round"/>
<path fill-rule="evenodd" clip-rule="evenodd" d="M44.13 19.6424C43.8215 18.9726 43.4601 18.4523 43.2212 18.178C43.2166 18.825 43.3163 19.4054 43.4707 19.9099C42.9954 20.1391 42.5015 20.4601 42.0296 20.9031C42.3932 20.8921 43.0207 20.804 43.7221 20.5756C44.0453 21.2885 44.454 21.7807 44.7219 22.0098C44.7037 21.4099 44.5775 20.8349 44.4002 20.3162C44.9012 20.0942 45.4088 19.7965 45.8614 19.4025C45.5113 19.3614 44.8727 19.3957 44.13 19.6424Z" fill="url(#paint4_linear_643_2806)"/>
<path fill-rule="evenodd" clip-rule="evenodd" d="M46.5678 12.9321C46.3625 12.4863 46.1219 12.14 45.963 11.9574C45.9598 12.388 46.0262 12.7744 46.129 13.1101C45.8126 13.2627 45.4838 13.4764 45.1697 13.7713C45.4117 13.764 45.8294 13.7053 46.2963 13.5532C46.5115 14.0278 46.7835 14.3554 46.9618 14.508C46.9498 14.1086 46.8657 13.7259 46.7477 13.3806C47.0811 13.2328 47.419 13.0346 47.7203 12.7724C47.4872 12.7451 47.0622 12.7679 46.5678 12.9321Z" fill="url(#paint5_linear_643_2806)"/>
<path fill-rule="evenodd" clip-rule="evenodd" d="M53.1694 6.26163C52.8609 5.59182 52.4995 5.07151 52.2607 4.79716C52.256 5.44423 52.3557 6.02464 52.5101 6.52909C52.0348 6.75833 51.5409 7.07935 51.069 7.52233C51.4326 7.51133 52.0601 7.42324 52.7615 7.19478C53.0848 7.90766 53.4934 8.39987 53.7613 8.62902C53.7432 8.02908 53.6169 7.4541 53.4396 6.93544C53.9406 6.71341 54.4482 6.41567 54.9008 6.02168C54.5508 5.98064 53.9121 6.01492 53.1694 6.26163Z" fill="url(#paint6_linear_643_2806)"/>
<path fill-rule="evenodd" clip-rule="evenodd" d="M54.2158 21.28C53.7618 20.2944 53.23 19.5288 52.8786 19.1252C52.8717 20.0773 53.0185 20.9314 53.2457 21.6736C52.5468 22.0109 51.8205 22.483 51.1265 23.1345C51.6613 23.1183 52.5841 22.9888 53.6156 22.6529C54.0912 23.7015 54.6923 24.4256 55.0864 24.7627C55.0597 23.8802 54.874 23.0344 54.6132 22.2714C55.3506 21.9447 56.0979 21.5066 56.764 20.9267C56.2488 20.8663 55.3088 20.9167 54.2158 21.28Z" fill="url(#paint7_linear_643_2806)"/>
<circle cx="0.397721" cy="0.397721" r="0.397721" transform="matrix(-0.931142 0.364658 0.364658 0.931142 51.7098 14.0196)" fill="#2F235A"/>
<circle cx="0.397721" cy="0.397721" r="0.397721" transform="matrix(-0.931142 0.364658 0.364658 0.931142 41.8625 9.01877)" fill="#FE9076"/>
<circle cx="0.397721" cy="0.397721" r="0.397721" transform="matrix(-0.931142 0.364658 0.364658 0.931142 60.7661 11.1914)" fill="#FFA400"/>
<circle cx="0.397721" cy="0.397721" r="0.397721" transform="matrix(-0.931142 0.364658 0.364658 0.931142 52.2252 27.2055)" fill="#23BB86"/>
<path d="M41.939 7.63318C42.3259 6.15535 43.7226 2.7755 46.2136 1.07871" stroke="#FE9076" stroke-width="0.346178" stroke-linecap="round"/>
<path d="M61.714 10.1022C62.6768 8.9162 65.3448 6.41503 68.3142 5.89867" stroke="#FFA400" stroke-width="0.346178" stroke-linecap="round"/>
<path d="M53.6924 28.2989C54.5456 28.6101 56.6936 29.6016 58.4593 31.0784" stroke="#23BB86" stroke-width="0.346178" stroke-linecap="round"/>
<rect x="13.1669" y="49.5949" width="42.2141" height="29.181" fill="url(#paint8_linear_643_2806)"/>
<mask id="mask0_643_2806" style="mask-type:alpha" maskUnits="userSpaceOnUse" x="13" y="49" width="43" height="30">
<rect x="13.1669" y="49.5949" width="42.2141" height="29.181" fill="#C4C4C4"/>
</mask>
<g mask="url(#mask0_643_2806)">
<path d="M15.1643 48.8519L43.9091 48.8519L37.4121 60.1331L8.66724 60.1331L15.1643 48.8519Z" fill="black" fill-opacity="0.07"/>
<rect x="41.8741" y="49.5949" width="42.2141" height="29.181" fill="url(#paint9_linear_643_2806)"/>
</g>
<path d="M13.13 49.5949L41.8748 49.5949L36.3222 58.861L7.57733 58.861L13.13 49.5949Z" fill="url(#paint10_linear_643_2806)"/>
<mask id="mask1_643_2806" style="mask-type:alpha" maskUnits="userSpaceOnUse" x="41" y="49" width="15" height="30">
<rect x="41.8743" y="49.5949" width="13.5065" height="29.181" fill="#C4C4C4"/>
</mask>
<g mask="url(#mask1_643_2806)">
<path d="M53.7366 49.5464L40.209 49.5464L46.5654 60.2146L60.093 60.2146L53.7366 49.5464Z" fill="black" fill-opacity="0.07"/>
</g>
<path d="M55.4019 49.5949L41.8742 49.5949L47.4269 58.861L60.9545 58.861L55.4019 49.5949Z" fill="url(#paint11_linear_643_2806)"/>
<circle cx="27.1921" cy="42.1623" r="3.98921" fill="url(#paint12_linear_643_2806)"/>
<circle cx="42.7909" cy="34.3184" r="3.85479" fill="url(#paint13_linear_643_2806)"/>
<circle cx="28.0728" cy="27.355" r="3.10851" fill="url(#paint14_linear_643_2806)"/>
<circle cx="39.9789" cy="20.2422" r="2.812" fill="url(#paint15_linear_643_2806)"/>
<circle cx="35.4029" cy="30.777" r="0.775212" fill="#FFA800" fill-opacity="0.23"/>
<circle cx="47.4212" cy="25.0217" r="0.775212" fill="#FFA800" fill-opacity="0.23"/>
<circle cx="28.8482" cy="15.7619" r="0.775212" fill="#FFA800" fill-opacity="0.23"/>
<circle cx="39.204" cy="43.884" r="0.775212" fill="#FFA800" fill-opacity="0.23"/>
<circle cx="21.2799" cy="31.5523" r="0.775212" fill="#FFA800" fill-opacity="0.23"/>
<path d="M55.4807 49.733H13.1336L6.63007 9.63431H63.2901L55.4807 49.733Z" fill="url(#paint16_linear_643_2806)"/>
<defs>
<linearGradient id="paint0_linear_643_2806" x1="25.2113" y1="18.6025" x2="23.8023" y2="22.2004" gradientUnits="userSpaceOnUse">
<stop stop-color="#FFE89E"/>
<stop offset="1" stop-color="#FFBF1A"/>
</linearGradient>
<linearGradient id="paint1_linear_643_2806" x1="22.5074" y1="12.2399" x2="21.5695" y2="14.6348" gradientUnits="userSpaceOnUse">
<stop stop-color="#FFE89E"/>
<stop offset="1" stop-color="#FFBF1A"/>
</linearGradient>
<linearGradient id="paint2_linear_643_2806" x1="16.1709" y1="5.2218" x2="14.7619" y2="8.81966" gradientUnits="userSpaceOnUse">
<stop stop-color="#FFE89E"/>
<stop offset="1" stop-color="#FFBF1A"/>
</linearGradient>
<linearGradient id="paint3_linear_643_2806" x1="15.4977" y1="19.7493" x2="13.4248" y2="25.0426" gradientUnits="userSpaceOnUse">
<stop stop-color="#FFE89E"/>
<stop offset="1" stop-color="#FFBF1A"/>
</linearGradient>
<linearGradient id="paint4_linear_643_2806" x1="43.3383" y1="18.6025" x2="44.7474" y2="22.2004" gradientUnits="userSpaceOnUse">
<stop stop-color="#FFE89E"/>
<stop offset="1" stop-color="#FFBF1A"/>
</linearGradient>
<linearGradient id="paint5_linear_643_2806" x1="46.0409" y1="12.24" x2="46.9787" y2="14.6348" gradientUnits="userSpaceOnUse">
<stop stop-color="#FFE89E"/>
<stop offset="1" stop-color="#FFBF1A"/>
</linearGradient>
<linearGradient id="paint6_linear_643_2806" x1="52.3778" y1="5.22171" x2="53.7868" y2="8.81957" gradientUnits="userSpaceOnUse">
<stop stop-color="#FFE89E"/>
<stop offset="1" stop-color="#FFBF1A"/>
</linearGradient>
<linearGradient id="paint7_linear_643_2806" x1="53.0519" y1="19.7494" x2="55.1249" y2="25.0427" gradientUnits="userSpaceOnUse">
<stop stop-color="#FFE89E"/>
<stop offset="1" stop-color="#FFBF1A"/>
</linearGradient>
<linearGradient id="paint8_linear_643_2806" x1="27.2684" y1="44.1923" x2="10.4438" y2="90.532" gradientUnits="userSpaceOnUse">
<stop stop-color="#FFD481"/>
<stop offset="1" stop-color="#FA620C"/>
</linearGradient>
<linearGradient id="paint9_linear_643_2806" x1="20.3692" y1="47.7441" x2="71.4298" y2="102.309" gradientUnits="userSpaceOnUse">
<stop stop-color="#FFD481"/>
<stop offset="0.83311" stop-color="#FA620C"/>
</linearGradient>
<linearGradient id="paint10_linear_643_2806" x1="13.7215" y1="46.2832" x2="12.3554" y2="66.0264" gradientUnits="userSpaceOnUse">
<stop stop-color="#FFD481"/>
<stop offset="1" stop-color="#FA620C"/>
</linearGradient>
<linearGradient id="paint11_linear_643_2806" x1="57.5364" y1="46.2832" x2="59.9662" y2="65.8188" gradientUnits="userSpaceOnUse">
<stop stop-color="#FFD481"/>
<stop offset="1" stop-color="#FA620C"/>
</linearGradient>
<linearGradient id="paint12_linear_643_2806" x1="27.4942" y1="36.8565" x2="26.7354" y2="47.6244" gradientUnits="userSpaceOnUse">
<stop stop-color="#FF9F81"/>
<stop offset="1" stop-color="#F53838"/>
</linearGradient>
<linearGradient id="paint13_linear_643_2806" x1="43.0828" y1="29.1914" x2="42.3495" y2="39.5964" gradientUnits="userSpaceOnUse">
<stop stop-color="#FF9F81"/>
<stop offset="1" stop-color="#F53838"/>
</linearGradient>
<linearGradient id="paint14_linear_643_2806" x1="28.3082" y1="23.2206" x2="27.7169" y2="31.6112" gradientUnits="userSpaceOnUse">
<stop stop-color="#FF9F81"/>
<stop offset="1" stop-color="#F53838"/>
</linearGradient>
<linearGradient id="paint15_linear_643_2806" x1="40.1919" y1="16.5022" x2="39.657" y2="24.0924" gradientUnits="userSpaceOnUse">
<stop stop-color="#FF9F81"/>
<stop offset="1" stop-color="#F53838"/>
</linearGradient>
<linearGradient id="paint16_linear_643_2806" x1="34.4945" y1="9.63431" x2="34.4945" y2="94.8249" gradientUnits="userSpaceOnUse">
<stop stop-color="white" stop-opacity="0"/>
<stop offset="1" stop-color="#FE9277"/>
</linearGradient>
</defs>
</svg>
