<svg width="12" height="12" viewBox="0 0 12 12" fill="none" xmlns="http://www.w3.org/2000/svg">
<path d="M5.01556 8.32988C4.95388 8.33 4.89279 8.31795 4.83579 8.29441C4.77879 8.27086 4.727 8.2363 4.68339 8.19269L2.69039 6.19922C2.64549 6.15591 2.60966 6.10409 2.585 6.04679C2.56033 5.98949 2.54733 5.92785 2.54674 5.86546C2.54616 5.80308 2.558 5.74121 2.58158 5.68345C2.60517 5.62569 2.64001 5.57321 2.6841 5.52907C2.72818 5.48493 2.78061 5.45 2.83833 5.42634C2.89605 5.40267 2.95791 5.39074 3.02029 5.39124C3.08268 5.39174 3.14434 5.40465 3.20167 5.42924C3.25901 5.45382 3.31088 5.48957 3.35425 5.53441L5.01509 7.19525L8.00553 4.20575C8.09362 4.11759 8.21313 4.06804 8.33776 4.06799C8.46239 4.06795 8.58194 4.11742 8.67009 4.20551C8.75825 4.29361 8.80781 4.41312 8.80785 4.53775C8.80789 4.66238 8.75843 4.78192 8.67033 4.87008L5.34772 8.19269C5.30411 8.2363 5.25232 8.27086 5.19532 8.29441C5.13832 8.31795 5.07723 8.33 5.01556 8.32988Z" fill="#2FAB73"/>
</svg>
