<svg width="9" height="9" viewBox="0 0 9 9" fill="none" xmlns="http://www.w3.org/2000/svg">
<path d="M7.45887 3.09341L5.59498 2.82253L4.76178 1.13336C4.73902 1.08711 4.70158 1.04967 4.65533 1.02691C4.53934 0.969654 4.39839 1.01737 4.3404 1.13336L3.50719 2.82253L1.64331 3.09341C1.59192 3.10075 1.54494 3.12498 1.50897 3.16168C1.46548 3.20638 1.44152 3.26651 1.44234 3.32887C1.44317 3.39123 1.46872 3.4507 1.51337 3.49423L2.86192 4.80901L2.54332 6.66556C2.53585 6.70874 2.54063 6.75316 2.55711 6.79377C2.5736 6.83438 2.60114 6.86956 2.6366 6.89531C2.67206 6.92107 2.71403 6.93637 2.75775 6.93949C2.80147 6.94261 2.84518 6.93341 2.88394 6.91295L4.55109 6.03643L6.21824 6.91295C6.26375 6.93717 6.31661 6.94525 6.36726 6.93644C6.49499 6.91442 6.58088 6.79329 6.55886 6.66556L6.24026 4.80901L7.5888 3.49423C7.62551 3.45826 7.64973 3.41128 7.65708 3.35989C7.6769 3.23142 7.58734 3.1125 7.45887 3.09341Z" fill="#FEA250"/>
</svg>
